<svg xmlns="http://www.w3.org/2000/svg" width="20.8" height="20.28" viewBox="0 0 20.8 20.28">
  <path id="weather-Showers-blue" d="M1.6,11.39A4.737,4.737,0,0,1,2.69,8.31,4.794,4.794,0,0,1,5.47,6.58,5.782,5.782,0,0,1,7.54,3.19,5.764,5.764,0,0,1,11.3,1.86a5.988,5.988,0,0,1,5.84,4.58h.34A4.89,4.89,0,0,1,21.75,8.9a4.975,4.975,0,0,1,.65,2.49,4.82,4.82,0,0,1-1.37,3.44,4.692,4.692,0,0,1-3.37,1.5c-.12,0-.18-.06-.18-.17V14.82c0-.11.06-.17.18-.17a3.3,3.3,0,0,0,2.17-1.05,3.114,3.114,0,0,0,.9-2.22,3.182,3.182,0,0,0-.96-2.31,3.13,3.13,0,0,0-2.29-.97H15.85a.208.208,0,0,1-.22-.18l-.07-.57a4.066,4.066,0,0,0-.7-1.94,4.257,4.257,0,0,0-3.55-1.85A4.123,4.123,0,0,0,8.45,4.65,4.054,4.054,0,0,0,7.08,7.37l-.07.54c0,.09-.05.14-.16.14l-.54.11A3.094,3.094,0,0,0,4.2,9.19a3.132,3.132,0,0,0-.85,2.2,3.183,3.183,0,0,0,.89,2.25,3.115,3.115,0,0,0,2.17,1.02c.12,0,.18.06.18.17v1.34c0,.11-.06.17-.18.17a5.082,5.082,0,0,1-1.88-.45,4.957,4.957,0,0,1-2.93-4.5Zm5.42,6.77a.832.832,0,0,1,.02-.13.892.892,0,0,0,.02-.11l.27-1.03a.855.855,0,0,1,.4-.51.755.755,0,0,1,.64-.07.875.875,0,0,1,.52.4.755.755,0,0,1,.07.64l-.24,1.01c-.13.44-.38.66-.76.66H7.87c-.03,0-.07-.01-.11-.01a.375.375,0,0,0-.1-.01.853.853,0,0,1-.48-.34.9.9,0,0,1-.16-.5Zm1.32-4.82a.538.538,0,0,1,.01-.11.44.44,0,0,0,.01-.09l.3-1.05a.871.871,0,0,1,.32-.45.843.843,0,0,1,.47-.15h.08c.03,0,.06.01.09.01a.249.249,0,0,0,.08.01.827.827,0,0,1,.51.4.755.755,0,0,1,.07.64l-.24,1a.892.892,0,0,1-.4.59.679.679,0,0,1-.65.02.8.8,0,0,1-.49-.34.859.859,0,0,1-.16-.48Zm1.23,7.95a1.05,1.05,0,0,1,.02-.13.964.964,0,0,0,.02-.12l.29-.99a.853.853,0,0,1,.4-.54.78.78,0,0,1,.65-.08.835.835,0,0,1,.51.41.821.821,0,0,1,.07.65l-.25,1.04a.746.746,0,0,1-.8.61.965.965,0,0,1-.24-.04.718.718,0,0,1-.49-.3.836.836,0,0,1-.18-.51Zm1.34-4.77a.963.963,0,0,1,.04-.25l.27-1.03a.809.809,0,0,1,.41-.51.777.777,0,0,1,.65-.07.8.8,0,0,1,.57,1.04l-.24.99c-.13.45-.37.68-.72.68a1.843,1.843,0,0,1-.31-.06.718.718,0,0,1-.49-.3.782.782,0,0,1-.18-.49Zm2.82,1.68a1.121,1.121,0,0,1,.03-.24l.28-.99a.867.867,0,0,1,.41-.54.785.785,0,0,1,.63-.09.874.874,0,0,1,.53.41.78.78,0,0,1,.09.63l-.29,1.06a.73.73,0,0,1-.79.61,1.09,1.09,0,0,1-.26-.03.7.7,0,0,1-.46-.3,1.223,1.223,0,0,1-.17-.52Zm1.38-4.76a2.413,2.413,0,0,1,.05-.26l.3-1.03a.665.665,0,0,1,.29-.47.817.817,0,0,1,.49-.14.6.6,0,0,1,.24.03.826.826,0,0,1,.52.38.746.746,0,0,1,.07.65l-.24,1.03a.771.771,0,0,1-.76.65,1.841,1.841,0,0,1-.34-.06.823.823,0,0,1-.62-.78Z" transform="translate(-1.6 -1.86)" fill="#fff" fill-rule="evenodd"/>
</svg>
